# xmcd
#
# Track frame offsets:
#	150
#	12033
#	29538
#	49883
#	74146
#	92910
#	114378
#	125418
#	138021
#	151587
#	167815
#	187981
#	203107
#	214283
#
# Disc length: 3419 seconds
#
# Revision: 1
# Processed by: cddbd v1.5.2PL0 Copyright (c) Steve Scherf et al.
# Submitted via: audiograbber 1.83.01
#
DISCID=c10d590e
DTITLE=Bluesgosch -  Keesfiess
DYEAR=2011
DGENRE=Blues
TTITLE0=Schnoog 
TTITLE1=Fraue 
TTITLE2=Du reddschd zuviel
TTITLE3=Maiers Hund 
TTITLE4=Bertram 
TTITLE5=Louisiana Voodoo 
TTITLE6=Heimkehr mit Folgen 
TTITLE7=Keesfiess 
TTITLE8=Party heit 
TTITLE9=Reggae Goggl 
TTITLE10=Butzdaach 
TTITLE11=Frieh om Morge 
TTITLE12=Alkohol 
TTITLE13=Fenschder 
EXTD=Dieter Reinberger - Blues Harp und Gesang\nJürgen "Mojo" Schultz - Gitarre
EXTD=n\nPetra Arnold-Schultz - Kontrabass\nKlaus Pelzer - Schlagzeug und Perkus
EXTD=sion und Shruti Box\nClaudia Böhmer und Katerina Gein - Klatsch und Tratsc
EXTD=h und Chor\nKontakt:\nDieter Reinberger\nwww.blueschgosch.de
EXTT0=
EXTT1=
EXTT2=
EXTT3=
EXTT4=
EXTT5=
EXTT6=
EXTT7=
EXTT8=
EXTT9=
EXTT10=
EXTT11=
EXTT12=
EXTT13=
PLAYORDER=
